<?xml version="1.0" encoding="UTF-8" standalone="no"?>
<!-- Created with Inkscape (http://www.inkscape.org/) -->

<svg
   xmlns:dc="http://purl.org/dc/elements/1.1/"
   xmlns:cc="http://creativecommons.org/ns#"
   xmlns:rdf="http://www.w3.org/1999/02/22-rdf-syntax-ns#"
   xmlns:svg="http://www.w3.org/2000/svg"
   xmlns="http://www.w3.org/2000/svg"
   xmlns:sodipodi="http://sodipodi.sourceforge.net/DTD/sodipodi-0.dtd"
   xmlns:inkscape="http://www.inkscape.org/namespaces/inkscape"
   width="107mm"
   height="148mm"
   viewBox="0 0 379.13365 524.40915"
   id="svg2"
   version="1.1"
   inkscape:version="0.91 r13725"
   sodipodi:docname="installer2.svg">
  <defs
     id="defs4" />
  <sodipodi:namedview
     id="base"
     pagecolor="#829379"
     bordercolor="#666666"
     borderopacity="1.0"
     inkscape:pageopacity="0"
     inkscape:pageshadow="2"
     inkscape:zoom="0.35"
     inkscape:cx="375"
     inkscape:cy="538.248"
     inkscape:document-units="px"
     inkscape:current-layer="layer1"
     showgrid="false"
     inkscape:window-width="1280"
     inkscape:window-height="657"
     inkscape:window-x="-8"
     inkscape:window-y="-8"
     inkscape:window-maximized="1" />
  <metadata
     id="metadata7">
    <rdf:RDF>
      <cc:Work
         rdf:about="">
        <dc:format>image/svg+xml</dc:format>
        <dc:type
           rdf:resource="http://purl.org/dc/dcmitype/StillImage" />
        <dc:title></dc:title>
      </cc:Work>
    </rdf:RDF>
  </metadata>
  <g
     inkscape:label="Layer 1"
     inkscape:groupmode="layer"
     id="layer1"
     transform="translate(0,-527.95305)">
    <path
       style="fill:#ffffff"
       d="m -1162.8257,702.61552 -6.7451,-5.461 -0.7781,-238.99691 c -0.5153,-158.29602 0.2213,-242.7079 2.1814,-249.98713 2.3011,-8.54586 4.952,-11.6849 11.9187,-14.11348 5.9219,-2.06441 48.9429,-3.12323 126.9002,-3.12323 105.85424,0 118.42477,0.48376 122.66144,4.72043 13.94427,13.94427 97.44868,113.88225 99.33754,118.88707 1.22168,3.23701 1.86454,90.64939 1.42857,194.24973 l -0.79266,188.36422 -6.74508,5.4607 c -6.46969,5.2377 -13.60249,5.4607 -174.68349,5.4607 -161.08522,0 -168.21362,-0.2229 -174.68342,-5.4611 z m 203.21847,-24.2221 c 7.99398,-3.9791 16.15067,-11.2302 21.46495,-19.0817 7.97784,-11.78667 8.57143,-14.47555 8.57143,-38.82704 0,-24.88223 -0.42783,-26.701 -8.73705,-37.14285 -4.80537,-6.03872 -14.44823,-13.90478 -21.42857,-17.48015 -11.30005,-5.78791 -16.13729,-6.41443 -44.12013,-5.71428 l -31.4285,0.78637 -0.7695,61.94774 -0.7695,61.94781 7.9124,1.3618 c 17.6815,3.0434 56.24088,-1.2951 69.30447,-7.7977 z m -149.12417,-15.3168 0.8395,-20.71428 10.5891,-0.0629 c 15.3055,-0.0906 33.7794,-9.4306 40.5194,-20.48543 7.3931,-12.12608 7.574,-32.19568 0.3963,-43.96622 -8.8123,-14.45126 -21.6399,-18.67652 -53.8351,-17.73269 l -27.92,0.81863 -0.7705,62.29411 -0.7704,62.29408 15.0561,-0.8655 15.0562,-0.8656 0.8394,-20.7142 z m 226.30341,-2.1429 0,-24.28567 21.42857,0 21.42857,0 0,-12.85714 0,-12.85714 -21.42857,0 -21.42857,0 0,-12.85714 0,-12.85715 22.85714,0 22.85714,0 0,-12.85714 0,-12.85714 -37.14286,0 -37.14285,0 0,62.85714 0,62.85718 14.28571,0 14.28572,0 0,-24.2858 z m 58.57142,-229.99995 0,-107.14286 -47.14285,-1.42857 -47.14286,-1.42857 -0.77598,-55 -0.77598,-55 -117.08116,0 -117.0811,0 0,162.38095 c 0,89.30953 0.8675,163.24853 1.9279,164.30891 1.0604,1.06037 75.3104,1.59608 164.99998,1.19045 l 163.07205,-0.73745 0,-107.14286 z"
       id="path3362"
       inkscape:connector-curvature="0" />
    <path
       style="fill:#ffffff"
       d=""
       id="path3364"
       inkscape:connector-curvature="0" />
    <path
       style="fill:#ffffff"
       d="m -1110.1422,601.5052 c 0,-15.93434 0.4587,-17.14286 6.5071,-17.14286 10.3961,0 19.2071,7.8448 19.2071,17.10079 0,10.51639 -6.7314,17.18492 -17.3469,17.18492 -8.322,0 -8.3673,-0.0929 -8.3673,-17.14285 z"
       id="path3366"
       inkscape:connector-curvature="0" />
    <path
       style="fill:#ffffff"
       d="m -1007.2851,624.36234 0,-40 7.085,0 c 14.1417,0 29.37673,8.50822 34.47567,19.25343 6.07458,12.80122 4.14992,38.52652 -3.52756,47.15001 -6.32294,7.10204 -21.03411,13.59654 -30.79851,13.59654 l -7.2346,0 0,-39.99998 z"
       id="path3368"
       inkscape:connector-curvature="0" />
    <path
       style="fill:#ffffff"
       d="m -1124.3274,493.12156 c -8.4681,-15.8227 1.1929,-31.74734 32.3156,-53.26691 7.8293,-5.41351 9.5411,-9.81662 19.4388,-50 16.5657,-67.25442 16.54,-66.78748 4.3572,-79.29051 -14.1469,-14.51881 -20.4512,-30.25366 -16.2169,-40.47607 4.0811,-9.85263 14.5073,-15.57929 24.0183,-13.19218 11.0891,2.78318 15.9864,15.28342 15.9864,40.80503 0,19.76297 0.7372,22.82961 6.7304,27.99903 3.7017,3.19288 16.2374,14.69209 27.8571,25.55379 11.61975,10.8617 30.53244,27.25456 42.02825,36.42857 l 20.90146,16.68003 29.62682,0 c 31.4239,0 41.77437,2.40529 52.14168,12.11693 8.19076,7.67275 8.41496,21.73002 0.50692,31.78347 -4.74332,6.03015 -8.34615,7.52817 -18.10567,7.52817 -10.45239,0 -16.38224,-2.90493 -41.72347,-20.43962 l -29.53946,-20.43961 -27.35487,3.61846 c -30.84966,4.08076 -64.63236,12.3079 -81.64056,19.88204 -10.4399,4.64909 -11.8788,6.659 -16.6329,23.23227 -3.7348,13.01971 -8.0279,20.80581 -15.2034,27.57321 -11.6291,10.9676 -24.7797,12.7084 -29.4917,3.9039 z m 19.5655,-10.5612 c 3.6585,-2.5625 8.4446,-8.9498 10.6358,-14.19395 4.6924,-11.23059 4.8391,-12.5755 1.372,-12.5755 -5.1045,0 -23.1024,19.99335 -23.1024,25.66385 0,6.9828 2.367,7.2187 11.0946,1.1056 z m 232.88536,-42.71741 c 3.94822,-10.2889 1.68967,-15.79082 -8.17398,-19.91212 -10.18782,-4.25674 -47.28197,-5.82707 -47.17449,-1.99706 0.0331,1.17857 8.06879,7.52377 17.85715,14.10046 19.00093,12.76651 34.36117,15.96575 37.49132,7.80872 z m -183.61466,-16.6403 c 14.5856,-6.08098 58.64733,-15.98317 71.12017,-15.98317 6.0689,0 11.74925,-1.15672 12.623,-2.57048 0.87376,-1.41376 -7.72893,-10.65066 -19.11709,-20.52644 -11.38818,-9.87578 -28.06498,-25.0384 -37.05958,-33.69471 -8.9946,-8.65632 -17.3244,-14.76822 -18.5106,-13.58201 -2.8351,2.83509 -23.0964,85.45299 -21.6378,88.23078 1.4654,2.79071 1.3533,2.80741 12.5819,-1.87397 z m -0.3654,-134.20475 c 0,-10.11324 -1.4523,-16.56977 -4.2493,-18.89108 -4.9545,-4.11189 -12.3051,-2.03104 -14.679,4.15546 -1.8222,4.74837 11.8152,30.10006 16.1916,30.10006 1.5052,0 2.7367,-6.914 2.7367,-15.36444 z"
       id="path3370"
       inkscape:connector-curvature="0" />
    <g
       id="layer1-0"
       inkscape:label="Layer 1"
       transform="matrix(0.84918069,0,0,0.89994642,-125.25005,370.64756)">
      <path
         inkscape:connector-curvature="0"
         id="path3347"
         d="m 187.80884,748.43032 c -20.55129,-8.23056 -26.46526,-20.84964 -29.82699,-63.64391 l -3.25344,-41.41576 15.32315,0 15.32312,0 0,31.27662 c 0,54.12655 -16.67417,49.70472 187.42992,49.70472 204.10411,0 187.42992,4.42183 187.42992,-49.70472 l 0,-31.27662 15.1045,0 15.1045,0 -1.71665,40.88149 c -1.64801,39.24677 -2.35239,41.43728 -17.61545,54.78149 l -15.89881,13.9 -178.83358,-0.30194 C 278.02058,752.46561 193.16398,750.575 187.80884,748.43032 Z"
         style="fill:#ffffff" />
      <path
         inkscape:connector-curvature="0"
         id="path3349"
         d="m 344.18124,620.48927 c -2.93403,-21.64212 -4.5473,-23.89631 -21.8661,-30.55302 -17.34678,-6.66747 -19.54083,-6.53569 -30.35339,1.823 -23.69942,18.32093 -26.50044,18.64608 -40.18928,4.6653 l -12.91636,-13.1918 13.95085,-18.30805 c 13.5833,-17.82569 13.75809,-18.78825 6.63379,-36.53488 -6.15194,-15.32448 -10.11206,-18.67901 -24.86956,-21.06648 -29.57462,-4.78456 -30.42341,-5.51145 -28.80239,-24.66582 1.45672,-17.21309 2.35911,-18.03168 24.1432,-21.90143 20.07346,-3.56586 23.41641,-5.98978 29.59202,-21.45661 6.64594,-16.64475 6.34752,-18.32563 -6.57118,-37.01265 l -13.53327,-19.57603 13.45402,-12.61256 13.45403,-12.61256 18.71045,13.65081 c 18.12761,13.2256 19.28044,13.43174 37.0089,6.61757 18.73107,-7.19954 23.81182,-15.84293 23.93545,-40.71913 0.0636,-12.7775 0.98807,-13.3085 20.73449,-11.90902 20.43889,1.44855 20.71342,1.70943 24.76358,23.53155 3.65224,19.67818 6.07575,22.82788 22.38958,29.0983 17.72296,6.81205 18.87809,6.60543 37.00447,-6.61927 l 18.71043,-13.65081 13.48177,12.63855 c 14.28807,13.39444 13.95578,16.13524 -4.76786,39.32496 -8.54241,10.58002 -8.67707,12.72687 -1.86307,29.70059 6.78765,16.90803 9.13796,18.52894 30.9769,21.36369 l 23.63196,3.06746 0,18.59023 c 0,19.58851 -1.10319,20.52204 -29.72326,25.15218 -14.66632,2.37272 -18.72752,5.76666 -24.69861,20.64066 -6.9008,17.1899 -6.67104,18.44215 6.69242,36.47498 l 13.83858,18.67396 -12.94844,13.22458 -12.94843,13.22458 -20.0063,-13.24224 c -19.09775,-12.64083 -20.81557,-12.93284 -37.82617,-6.42983 -15.80634,6.04261 -18.28425,9.3144 -21.92969,28.95559 -4.04033,21.76871 -4.44822,22.16746 -24.1178,23.57646 l -20.00797,1.43325 -3.16776,-23.36606 z m 50.98781,-84.53107 c 8.01815,-4.05717 18.85487,-14.2394 24.08159,-22.62714 35.85187,-57.53444 -44.27526,-118.14318 -93.06945,-70.39839 -28.22995,27.62281 -20.57297,74.68005 14.97941,92.05848 21.0207,10.27517 35.11416,10.52753 54.00845,0.96705 z"
         style="fill:#ffffff" />
    </g>
  </g>
</svg>
