<?xml version="1.0" encoding="UTF-8" standalone="no"?>
<!-- Created with Inkscape (http://www.inkscape.org/) -->

<svg
   xmlns:dc="http://purl.org/dc/elements/1.1/"
   xmlns:cc="http://creativecommons.org/ns#"
   xmlns:rdf="http://www.w3.org/1999/02/22-rdf-syntax-ns#"
   xmlns:svg="http://www.w3.org/2000/svg"
   xmlns="http://www.w3.org/2000/svg"
   xmlns:sodipodi="http://sodipodi.sourceforge.net/DTD/sodipodi-0.dtd"
   xmlns:inkscape="http://www.inkscape.org/namespaces/inkscape"
   width="49"
   height="64"
   viewBox="0 0 12.964583 16.933334"
   version="1.1"
   id="svg8"
   inkscape:version="0.92.1 r15371"
   sodipodi:docname="tick3.svg">
  <defs
     id="defs2" />
  <sodipodi:namedview
     id="base"
     pagecolor="#ffffff"
     bordercolor="#666666"
     borderopacity="1.0"
     inkscape:pageopacity="0.0"
     inkscape:pageshadow="2"
     inkscape:zoom="8.64"
     inkscape:cx="30.859929"
     inkscape:cy="31.400241"
     inkscape:document-units="px"
     inkscape:current-layer="layer1"
     showgrid="false"
     units="px"
     inkscape:pagecheckerboard="true"
     inkscape:window-width="1366"
     inkscape:window-height="705"
     inkscape:window-x="-8"
     inkscape:window-y="-8"
     inkscape:window-maximized="1" />
  <metadata
     id="metadata5">
    <rdf:RDF>
      <cc:Work
         rdf:about="">
        <dc:format>image/svg+xml</dc:format>
        <dc:type
           rdf:resource="http://purl.org/dc/dcmitype/StillImage" />
        <dc:title></dc:title>
      </cc:Work>
    </rdf:RDF>
  </metadata>
  <g
     inkscape:label="Layer 1"
     inkscape:groupmode="layer"
     id="layer1"
     transform="translate(0,-280.06665)">
    <path
       style="fill:none;fill-opacity:1;fill-rule:nonzero;stroke:#005333;stroke-width:1.35995829;stroke-miterlimit:4;stroke-dasharray:none;stroke-opacity:0.99607843"
       id="path4485"
       sodipodi:type="arc"
       sodipodi:cx="6.4825621"
       sodipodi:cy="288.29852"
       sodipodi:rx="5.2388139"
       sodipodi:ry="5.2340236"
       sodipodi:start="0"
       sodipodi:end="6.2760664"
       sodipodi:open="true"
       d="m 11.721376,288.29852 a 5.2388139,5.2340236 0 0 1 -5.2294903,5.23402 5.2388139,5.2340236 0 0 1 -5.2481043,-5.21539 5.2388139,5.2340236 0 0 1 5.2108098,-5.25258 5.2388139,5.2340236 0 0 1 5.2666518,5.19669" />
    <path
       style="fill:none;stroke:#3fad47;stroke-width:0.34395835;stroke-linecap:butt;stroke-linejoin:miter;stroke-miterlimit:4;stroke-dasharray:none;stroke-opacity:0.99607843"
       d="M 11.721243,288.26126 Z"
       id="path4513"
       inkscape:connector-curvature="0" />
    <path
       style="fill:none;stroke:#000000;stroke-width:0.26458335px;stroke-linecap:butt;stroke-linejoin:miter;stroke-opacity:1"
       d="M 11.721243,288.26126 Z"
       id="path4515"
       inkscape:connector-curvature="0" />
    <rect
       style="fill:#005333;fill-opacity:0.99607843;fill-rule:nonzero;stroke:#005333;stroke-width:0.26458335;stroke-opacity:0.99607843"
       id="rect6960"
       width="4.0327563"
       height="1.6206403"
       x="194.77007"
       y="211.59839"
       transform="rotate(41.9)" />
    <rect
       style="fill:#005333;fill-opacity:0.99607843;fill-rule:nonzero;stroke:#005333;stroke-width:0.26458335;stroke-opacity:0.99607843"
       id="rect6970"
       width="1.3945044"
       height="6.5579405"
       x="212.14417"
       y="191.90152"
       transform="rotate(46)" />
    <path
       style="fill:none;stroke:#005233;stroke-width:0.26458335px;stroke-linecap:butt;stroke-linejoin:miter;stroke-opacity:0.99607843"
       d="m 11.721243,288.26126 c -0.113024,-0.002 -0.226051,-0.003 -0.339071,-0.005 -0.01256,-2.1e-4 0.02513,0 0.03769,0 0.03765,0 0.07543,-8.7e-4 0.113068,0 0.190874,0.004 0.188598,-0.003 0.376893,0.0377 0.01228,0.003 -0.05025,0 -0.03769,0 0.06282,0 0.125631,0 0.188446,0 0.05025,0 0.100505,0 0.150758,0 0.01256,0 0.05022,8.2e-4 0.03769,0 -0.175875,-0.0117 -0.351855,-0.0217 -0.527783,-0.0325"
       id="path6972"
       inkscape:connector-curvature="0" />
    <path
       style="fill:none;stroke:#005233;stroke-width:0.26458335px;stroke-linecap:butt;stroke-linejoin:miter;stroke-opacity:0.99607843"
       d="m 11.721243,288.26126 c -0.181274,-0.0269 -0.360679,-0.0742 -0.543822,-0.0807 -0.0204,-7.4e-4 0,0.0408 0,0.0612 0,0.0102 0,0.0204 0,0.0306 0,0.0204 0,0.0408 0,0.0612 0,0.0102 0.01021,0.0306 0,0.0306 -0.01021,0 0,-0.0408 0,-0.0306 0,0.0306 0,0.0613 0,0.0919 0,0.0102 -0.0098,0.0336 0,0.0306 0.184335,-0.0556 0.362549,-0.12979 0.543823,-0.19469"
       id="path6974"
       inkscape:connector-curvature="0" />
  </g>
</svg>
