<?xml version="1.0" encoding="UTF-8" standalone="no"?>
<!-- Created with Inkscape (http://www.inkscape.org/) -->

<svg
   xmlns:dc="http://purl.org/dc/elements/1.1/"
   xmlns:cc="http://creativecommons.org/ns#"
   xmlns:rdf="http://www.w3.org/1999/02/22-rdf-syntax-ns#"
   xmlns:svg="http://www.w3.org/2000/svg"
   xmlns="http://www.w3.org/2000/svg"
   xmlns:sodipodi="http://sodipodi.sourceforge.net/DTD/sodipodi-0.dtd"
   xmlns:inkscape="http://www.inkscape.org/namespaces/inkscape"
   width="49"
   height="64"
   viewBox="0 0 12.964583 16.933334"
   version="1.1"
   id="svg8"
   sodipodi:docname="cross2.svg"
   inkscape:version="0.92.1 r15371">
  <defs
     id="defs2" />
  <sodipodi:namedview
     id="base"
     pagecolor="#ffffff"
     bordercolor="#666666"
     borderopacity="1.0"
     inkscape:pageopacity="0.0"
     inkscape:pageshadow="2"
     inkscape:zoom="7.0093984"
     inkscape:cx="23.535477"
     inkscape:cy="44.973898"
     inkscape:document-units="px"
     inkscape:current-layer="layer1"
     showgrid="false"
     units="px"
     inkscape:pagecheckerboard="true"
     inkscape:window-width="1366"
     inkscape:window-height="705"
     inkscape:window-x="-8"
     inkscape:window-y="-8"
     inkscape:window-maximized="1" />
  <metadata
     id="metadata5">
    <rdf:RDF>
      <cc:Work
         rdf:about="">
        <dc:format>image/svg+xml</dc:format>
        <dc:type
           rdf:resource="http://purl.org/dc/dcmitype/StillImage" />
        <dc:title></dc:title>
      </cc:Work>
    </rdf:RDF>
  </metadata>
  <g
     inkscape:label="Layer 1"
     inkscape:groupmode="layer"
     id="layer1"
     transform="translate(0,-280.06665)">
    <g
       transform="translate(0.15439584,0.14671719)"
       id="layer1-1"
       inkscape:label="Layer 1"
       style="stroke:#d42b35;stroke-opacity:0.99607843">
      <path
         d="m 11.721375,288.29852 a 5.2388139,5.2340236 0 0 1 -5.2294898,5.23402 5.2388139,5.2340236 0 0 1 -5.2481043,-5.21539 5.2388139,5.2340236 0 0 1 5.2108098,-5.25258 5.2388139,5.2340236 0 0 1 5.2666523,5.19669"
         sodipodi:open="true"
         sodipodi:end="6.2760664"
         sodipodi:start="0"
         sodipodi:ry="5.2340236"
         sodipodi:rx="5.2388139"
         sodipodi:cy="288.29852"
         sodipodi:cx="6.4825616"
         sodipodi:type="arc"
         id="path4485"
         style="fill:none;fill-opacity:1;fill-rule:nonzero;stroke:#d42b35;stroke-width:1.35995829;stroke-miterlimit:4;stroke-dasharray:none;stroke-opacity:0.99607843" />
      <path
         inkscape:connector-curvature="0"
         id="path4513"
         d="M 11.721243,288.26126 Z"
         style="fill:none;stroke:#d42b35;stroke-width:0.34395835;stroke-linecap:butt;stroke-linejoin:miter;stroke-miterlimit:4;stroke-dasharray:none;stroke-opacity:0.99607843" />
      <path
         inkscape:connector-curvature="0"
         id="path4515-7"
         d="M 11.721243,288.26126 Z"
         style="fill:none;stroke:#d42b35;stroke-width:0.26458335px;stroke-linecap:butt;stroke-linejoin:miter;stroke-opacity:0.99607843" />
      <path
         inkscape:connector-curvature="0"
         d="m 11.585243,288.58663 c 0.0091,-0.11774 0.0028,-0.23473 -0.01389,-0.35141 -0.004,-0.0221 -0.008,-0.0442 -0.01195,-0.0663 0,0 0.483221,-0.25695 0.483221,-0.25695 v 0 c 0.0039,0.0226 0.0078,0.0452 0.01177,0.0678 0.0192,0.11686 0.02777,0.23455 0.02926,0.35294 0,0 -0.498401,0.25395 -0.498401,0.25395 z"
         id="path4521-4"
         style="fill:none;fill-opacity:1;fill-rule:nonzero;stroke:#d42b35;stroke-width:0.34395832;stroke-miterlimit:4;stroke-dasharray:none;stroke-opacity:0.99607843" />
      <path
         inkscape:connector-curvature="0"
         d="m 11.357206,288.74226 c -0.01412,-0.10017 -0.03825,-0.19882 -0.06253,-0.29696 -0.02385,-0.0865 -0.03037,-0.17616 -0.05244,-0.26295 -0.0027,-0.0111 -0.0054,-0.0222 -0.0081,-0.0334 0,0 0.489742,-0.26393 0.489742,-0.26393 v 0 c 0.0025,0.011 0.005,0.0219 0.0074,0.0329 0.02144,0.0878 0.02625,0.17783 0.04766,0.26575 0.02398,0.0983 0.04757,0.19662 0.07144,0.29491 0,0 -0.493188,0.26368 -0.493188,0.26368 z"
         id="path4523-8"
         style="fill:none;fill-opacity:1;fill-rule:nonzero;stroke:#d42b35;stroke-width:0.34395832;stroke-miterlimit:4;stroke-dasharray:none;stroke-opacity:0.99607843" />
      <path
         inkscape:connector-curvature="0"
         d="m 11.585775,288.69492 c 0.0066,-0.11019 0.0056,-0.2207 0.005,-0.33105 0,0 0.487277,-0.24828 0.487277,-0.24828 v 0 c -5.02e-4,0.10863 -0.0017,0.21745 0.005,0.32592 0,0 -0.497337,0.25341 -0.497337,0.25341 z"
         id="path4527-8"
         style="fill:none;fill-opacity:1;fill-rule:nonzero;stroke:#d42b35;stroke-width:0.34395832;stroke-miterlimit:4;stroke-dasharray:none;stroke-opacity:0.99607843" />
      <path
         inkscape:connector-curvature="0"
         d="m 11.622932,288.92584 c 0.0017,-0.0928 0.0042,-0.18465 0.01741,-0.27662 0.01281,-0.0759 0.01734,-0.15258 0.02096,-0.2293 0.0025,-0.0843 0.0019,-0.16875 0.0017,-0.25313 -4.1e-5,-0.0131 -8.3e-5,-0.0263 -1.25e-4,-0.0394 0,0 0.494386,-0.25197 0.494386,-0.25197 v 0 c -1.5e-5,0.0132 -2.9e-5,0.0263 -4.4e-5,0.0395 -1.53e-4,0.0849 -4.23e-4,0.16985 -0.0013,0.25476 -7.93e-4,0.0788 -0.0049,0.15761 -0.01779,0.23545 -0.01465,0.0887 -0.02819,0.17643 -0.01673,0.26674 0,0 -0.498401,0.25395 -0.498401,0.25395 z"
         id="path4531-9"
         style="fill:none;fill-opacity:1;fill-rule:nonzero;stroke:#d42b35;stroke-width:0.34395832;stroke-miterlimit:4;stroke-dasharray:none;stroke-opacity:0.99607843" />
      <path
         inkscape:connector-curvature="0"
         d="m 11.698311,289.07659 c 0.0041,-0.094 0.0036,-0.18813 0.0032,-0.2822 -3.7e-4,-0.0863 -0.0015,-0.1726 -6.88e-4,-0.2589 9.53e-4,-0.0945 6.35e-4,-0.18904 1.45e-4,-0.28356 2.91e-4,-0.0659 7.41e-4,-0.13171 7.41e-4,-0.19757 0,0 0.491656,-0.25051 0.491656,-0.25051 v 0 c 1.6e-5,0.0656 4.5e-4,0.13121 7.41e-4,0.19681 -5.03e-4,0.0945 -8.2e-4,0.18894 1.44e-4,0.28341 8.47e-4,0.0865 -3.44e-4,0.17307 -6.87e-4,0.25961 -4.24e-4,0.093 -10e-4,0.18605 0.0032,0.27897 0,0 -0.498401,0.25394 -0.498401,0.25394 z"
         id="path4533-9"
         style="fill:none;fill-opacity:1;fill-rule:nonzero;stroke:#d42b35;stroke-width:0.34395832;stroke-miterlimit:4;stroke-dasharray:none;stroke-opacity:0.99607843" />
    </g>
    <rect
       style="fill:#d42b35;fill-opacity:0.99607843;fill-rule:nonzero;stroke:#d42b35;stroke-width:0.25594008;stroke-opacity:0.99607843"
       id="rect6192"
       width="1.3536019"
       height="6.7768221"
       x="193.08501"
       y="-217.05649"
       transform="rotate(136.5)" />
    <rect
       style="fill:#d42b35;fill-opacity:0.99607843;fill-rule:nonzero;stroke:#d42b35;stroke-width:0.26955637;stroke-opacity:0.99607843"
       id="rect6192-3"
       width="1.4278049"
       height="7.1264091"
       x="-212.30342"
       y="-194.82976"
       transform="matrix(-0.67997664,-0.73323378,0.71739464,-0.69666701,0,0)" />
  </g>
</svg>
