<?xml version="1.0" encoding="UTF-8" standalone="no"?>
<!-- Created with Inkscape (http://www.inkscape.org/) -->

<svg
   xmlns:dc="http://purl.org/dc/elements/1.1/"
   xmlns:cc="http://creativecommons.org/ns#"
   xmlns:rdf="http://www.w3.org/1999/02/22-rdf-syntax-ns#"
   xmlns:svg="http://www.w3.org/2000/svg"
   xmlns="http://www.w3.org/2000/svg"
   xmlns:sodipodi="http://sodipodi.sourceforge.net/DTD/sodipodi-0.dtd"
   xmlns:inkscape="http://www.inkscape.org/namespaces/inkscape"
   width="107mm"
   height="148mm"
   viewBox="0 0 379.13365 524.40915"
   id="svg2"
   version="1.1"
   inkscape:version="0.91 r13725"
   sodipodi:docname="pdf2.svg">
  <defs
     id="defs4" />
  <sodipodi:namedview
     id="base"
     pagecolor="#829379"
     bordercolor="#666666"
     borderopacity="1.0"
     inkscape:pageopacity="0"
     inkscape:pageshadow="2"
     inkscape:zoom="0.35"
     inkscape:cx="375"
     inkscape:cy="520"
     inkscape:document-units="px"
     inkscape:current-layer="layer1"
     showgrid="false"
     inkscape:window-width="1280"
     inkscape:window-height="657"
     inkscape:window-x="-8"
     inkscape:window-y="-8"
     inkscape:window-maximized="1" />
  <metadata
     id="metadata7">
    <rdf:RDF>
      <cc:Work
         rdf:about="">
        <dc:format>image/svg+xml</dc:format>
        <dc:type
           rdf:resource="http://purl.org/dc/dcmitype/StillImage" />
        <dc:title></dc:title>
      </cc:Work>
    </rdf:RDF>
  </metadata>
  <g
     inkscape:label="Layer 1"
     inkscape:groupmode="layer"
     id="layer1"
     transform="translate(0,-527.95305)">
    <path
       style="fill:#ffffff"
       d="m 14.31655,1045.4725 -6.7450995,-5.461 -0.77804,-238.99691 c -0.51531,-158.29602 0.22124,-242.7079 2.18134,-249.98713 2.3011605,-8.54586 4.9520395,-11.6849 11.9186695,-14.11348 5.92197,-2.06441 48.94298,-3.12323 126.9003,-3.12323 105.85422,0 118.42475,0.48376 122.66142,4.72043 13.94427,13.94427 97.44868,113.88225 99.33754,118.88707 1.22168,3.23701 1.86454,90.64939 1.42857,194.24973 l -0.79266,188.36422 -6.74508,5.4607 c -6.46969,5.2377 -13.60249,5.4607 -174.68349,5.4607 -161.0853,0 -168.21363,-0.2229 -174.68347,-5.4611 z m 203.21852,-24.2221 c 7.99398,-3.9791 16.15067,-11.2302 21.46495,-19.0817 7.97784,-11.78667 8.57143,-14.47555 8.57143,-38.82704 0,-24.88223 -0.42783,-26.701 -8.73705,-37.14285 -4.80537,-6.03872 -14.44823,-13.90478 -21.42857,-17.48015 -11.30005,-5.78791 -16.13729,-6.41443 -44.1201,-5.71428 l -31.42857,0.78637 -0.76946,61.94774 -0.76946,61.94781 7.91232,1.3618 c 17.68152,3.0434 56.24092,-1.2951 69.30451,-7.7977 z m -149.12416,-15.3168 0.83945,-20.71428 10.58912,-0.0629 c 15.30549,-0.0906 33.77945,-9.4306 40.5194,-20.48543 7.39308,-12.12608 7.57401,-32.19568 0.39635,-43.96622 -8.81237,-14.45126 -21.63997,-18.67652 -53.83521,-17.73269 l -27.92,0.81863 -0.77043,62.29411 -0.77043,62.29408 15.05615,-0.8655 15.05614,-0.8656 0.83946,-20.7142 z m 226.3034,-2.1429 0,-24.28567 21.42857,0 21.42857,0 0,-12.85714 0,-12.85714 -21.42857,0 -21.42857,0 0,-12.85714 0,-12.85715 22.85714,0 22.85714,0 0,-12.85714 0,-12.85714 -37.14286,0 -37.14285,0 0,62.85714 0,62.85718 14.28571,0 14.28572,0 0,-24.2858 z m 58.57142,-229.99995 0,-107.14286 -47.14285,-1.42857 -47.14286,-1.42857 -0.77598,-55 -0.77598,-55 -117.08116,0 -117.08117,0 0,162.38095 c 0,89.30953 0.86758,163.24853 1.92795,164.30891 1.06037,1.06037 75.31037,1.59608 165,1.19045 l 163.07205,-0.73745 0,-107.14286 z"
       id="path3362"
       inkscape:connector-curvature="0" />
    <path
       style="fill:#ffffff"
       d=""
       id="path3364"
       inkscape:connector-curvature="0" />
    <path
       style="fill:#ffffff"
       d="m 67.000021,944.36218 c 0,-15.93434 0.45873,-17.14286 6.50713,-17.14286 10.39608,0 19.20716,7.8448 19.20716,17.10079 0,10.51639 -6.7314,17.18492 -17.34694,17.18492 -8.322,0 -8.36735,-0.0929 -8.36735,-17.14285 z"
       id="path3366"
       inkscape:connector-curvature="0" />
    <path
       style="fill:#ffffff"
       d="m 169.85716,967.21932 0,-40 7.08504,0 c 14.1417,0 29.37673,8.50822 34.47567,19.25343 6.07458,12.80122 4.14992,38.52652 -3.52756,47.15001 -6.32294,7.10204 -21.03411,13.59654 -30.79852,13.59654 l -7.23463,0 0,-39.99998 z"
       id="path3368"
       inkscape:connector-curvature="0" />
    <path
       style="fill:#ffffff"
       d="m 52.814831,835.97854 c -8.46809,-15.8227 1.19295,-31.74734 32.31566,-53.26691 7.82928,-5.41351 9.54111,-9.81662 19.438819,-50 16.56566,-67.25442 16.54,-66.78748 4.35721,-79.29051 -14.146959,-14.51881 -20.451209,-30.25366 -16.216949,-40.47607 4.08109,-9.85263 14.507349,-15.57929 24.018339,-13.19218 11.08911,2.78318 15.98639,15.28342 15.98639,40.80503 0,19.76297 0.73716,22.82961 6.73039,27.99903 3.70172,3.19288 16.23743,14.69209 27.85715,25.55379 11.61971,10.8617 30.5324,27.25456 42.02821,36.42857 l 20.90146,16.68003 29.62682,0 c 31.4239,0 41.77437,2.40529 52.14168,12.11693 8.19076,7.67275 8.41496,21.73002 0.50692,31.78347 -4.74332,6.03015 -8.34615,7.52817 -18.10567,7.52817 -10.45239,0 -16.38224,-2.90493 -41.72347,-20.43962 l -29.53946,-20.43961 -27.35487,3.61846 c -30.84965,4.08076 -64.63234,12.3079 -81.64058,19.88204 -10.43984,4.64909 -11.87882,6.659 -16.632909,23.23227 -3.73475,13.01971 -8.02788,20.80581 -15.20344,27.57321 -11.62904,10.9676 -24.77968,12.7084 -29.4917,3.9039 z m 19.56556,-10.5612 c 3.6585,-2.5625 8.44458,-8.9498 10.63573,-14.19395 4.69244,-11.23059 4.83918,-12.5755 1.37204,-12.5755 -5.10454,0 -23.10242,19.99335 -23.10242,25.66385 0,6.9828 2.36702,7.2187 11.09465,1.1056 z M 305.26576,782.69993 c 3.94822,-10.2889 1.68967,-15.79082 -8.17398,-19.91212 -10.18782,-4.25674 -47.28197,-5.82707 -47.17449,-1.99706 0.0331,1.17857 8.06879,7.52377 17.85715,14.10046 19.00093,12.76651 34.36117,15.96575 37.49132,7.80872 z m -183.61467,-16.6403 c 14.58563,-6.08098 58.64734,-15.98317 71.12018,-15.98317 6.0689,0 11.74925,-1.15672 12.623,-2.57048 0.87376,-1.41376 -7.72893,-10.65066 -19.11709,-20.52644 -11.38816,-9.87578 -28.06497,-25.0384 -37.05959,-33.69471 -8.99462,-8.65632 -17.32439,-14.76822 -18.5106,-13.58201 -2.83509,2.83509 -23.09636,85.45299 -21.63777,88.23078 1.46537,2.79071 1.35328,2.80741 12.58187,-1.87397 z m -0.36536,-134.20475 c 0,-10.11324 -1.45232,-16.56977 -4.24933,-18.89108 -4.95451,-4.11189 -12.30507,-2.03104 -14.67905,4.15546 -1.82212,4.74837 11.81528,30.10006 16.19167,30.10006 1.50519,0 2.73671,-6.914 2.73671,-15.36444 z"
       id="path3370"
       inkscape:connector-curvature="0" />
  </g>
</svg>
